<?xml version="1.0" standalone="no"?>
<!DOCTYPE svg PUBLIC "-//W3C//DTD SVG 20010904//EN"
 "http://www.w3.org/TR/2001/REC-SVG-20010904/DTD/svg10.dtd">
<svg version="1.0" xmlns="http://www.w3.org/2000/svg"
 width="300.000000pt" height="138.000000pt" viewBox="0 0 300.000000 138.000000"
 preserveAspectRatio="xMidYMid meet">
<metadata>
Created by potrace 1.10, written by Peter Selinger 2001-2011
</metadata>
<g transform="translate(0.000000,138.000000) scale(0.050000,-0.050000)"
fill="#131f32" stroke="none">
<path d="M3942 2679 c-34 -34 -70 -99 -82 -145 -36 -146 -113 -219 -256 -243
-41 -7 -115 -44 -162 -82 -107 -84 -83 -85 -273 13 -173 89 -220 93 -389 28
-115 -43 -201 -49 -358 -26 -114 18 -130 15 -169 -21 -74 -70 -148 -86 -327
-71 -157 13 -170 11 -217 -33 -46 -43 -55 -44 -150 -22 -142 32 -231 29 -292
-11 -93 -61 -239 -45 -376 40 -267 166 -390 182 -591 77 -161 -84 -178 -231
-43 -375 48 -52 123 -285 123 -382 0 -103 -229 -566 -280 -566 -27 0 -76 -127
-73 -190 2 -48 18 -68 83 -102 l80 -41 0 -154 c0 -180 11 -192 162 -193 100 0
245 75 248 130 0 11 27 70 60 130 33 61 71 135 84 165 22 49 51 65 101 57 8
-1 16 14 17 33 1 23 5 26 12 9 5 -15 31 -35 57 -44 36 -14 57 -54 98 -194 66
-223 144 -381 195 -397 70 -23 172 -14 218 18 43 30 63 60 207 307 66 113 194
246 238 246 10 0 53 -32 96 -70 118 -107 303 -88 443 45 47 46 61 50 94 29 22
-13 67 -24 100 -24 34 0 94 -14 133 -30 103 -43 134 -39 303 45 130 64 172 75
293 77 103 1 169 14 247 49 122 55 163 43 188 -56 38 -145 204 -127 506 55 76
46 189 36 227 -20 57 -82 235 -50 355 63 73 69 110 61 167 -36 130 -219 548
-87 514 163 -7 51 -19 104 -27 117 -8 12 -17 40 -21 61 -3 21 -27 99 -53 175
l-48 137 68 89 c37 49 68 97 68 106 0 10 21 30 47 44 26 14 82 70 125 126 42
56 104 118 137 138 34 20 51 37 39 37 -14 0 -18 52 -12 157 22 391 -488 502
-604 130 -36 -115 -131 -82 -215 76 -67 126 -127 169 -205 145 -61 -18 -172
-106 -172 -135 0 -74 -115 -139 -220 -125 -203 27 -229 57 -172 195 86 204
-194 428 -346 276z m136 -167 c106 -113 -58 -259 -183 -164 -67 51 -21 180 70
198 25 5 50 10 57 11 6 2 31 -19 56 -45z m940 -310 c55 -59 58 -69 63 -245 l4
-102 55 87 c117 186 271 318 372 318 146 0 216 -106 159 -240 -16 -36 -165
-154 -363 -285 -149 -99 -194 -170 -146 -227 273 -329 265 -689 -13 -620 -57
15 -87 73 -118 230 -39 199 -191 176 -191 -29 0 -143 -49 -199 -157 -182 -90
15 -130 62 -101 118 20 37 19 37 -35 -3 -106 -77 -238 -102 -547 -101 -359 0
-375 7 -265 126 45 49 101 126 124 170 63 125 48 127 -20 3 -133 -241 -311
-336 -735 -390 l-107 -14 44 86 c29 56 47 133 51 217 l6 131 -19 -138 c-42
-301 -203 -393 -548 -313 -102 24 -199 181 -111 181 11 0 41 35 68 77 32 51
68 81 105 89 140 28 313 218 358 392 28 107 2 195 -84 285 -32 34 -45 63 -35
79 39 64 -182 -143 -272 -254 -125 -154 -156 -241 -162 -452 -5 -200 -22 -266
-82 -324 -149 -142 -418 -95 -367 65 12 39 2 36 -141 -28 -180 -82 -397 -118
-631 -105 -201 12 -205 19 -85 134 78 74 109 124 137 214 21 65 46 124 57 131
59 39 -70 409 -166 477 -162 115 337 255 606 170 190 -59 174 -118 -51 -188
-301 -95 -263 -351 62 -413 252 -48 341 -139 272 -278 -30 -59 -29 -60 5 -25
55 54 40 437 -15 403 -17 -10 -27 22 -25 85 1 14 -9 23 -21 20 -13 -2 -23 10
-24 26 0 17 -6 39 -13 51 -7 11 -19 79 -26 150 -8 71 -23 140 -35 154 -35 43
39 105 124 105 84 0 216 -86 260 -169 33 -61 61 -66 61 -10 0 226 373 392 522
233 35 -39 39 -39 26 -6 -13 33 -8 37 34 25 26 -8 89 -23 139 -34 84 -19 294
-164 286 -197 -9 -35 54 -63 65 -28 71 220 179 366 269 366 43 0 186 -62 196
-85 3 -8 28 -9 55 -3 37 10 63 -3 118 -58 38 -38 70 -62 70 -52 0 10 23 18 50
18 30 0 50 11 50 29 0 41 33 56 138 62 51 3 144 11 207 19 90 12 126 8 164
-18 65 -42 66 -42 55 28 -20 139 163 181 274 62z m-4465 -203 c745 -167 940
-788 360 -1147 -254 -157 -619 -233 -685 -142 -30 40 6 125 48 116 88 -19 324
508 324 725 0 62 -131 302 -198 365 -74 69 -49 146 36 114 16 -6 68 -20 115
-31z m2698 -1230 c-21 -16 -59 -29 -84 -29 -24 0 -50 -9 -57 -20 -14 -22 -96
-27 -116 -7 -46 45 32 87 162 86 122 0 131 -3 95 -30z"/>
<path d="M4660 1980 c-16 -11 -63 -20 -104 -20 -201 -1 -338 -367 -205 -544
37 -48 152 -116 197 -116 15 0 39 -14 53 -32 28 -33 97 28 99 85 0 13 9 27 20
30 90 31 117 393 37 495 -20 26 -37 64 -37 85 0 41 -16 46 -60 17z"/>
<path d="M1375 1819 c-56 -34 -9 -99 71 -99 82 1 120 25 111 72 -9 44 -125 61
-182 27z"/>
<path d="M749 1414 c-21 -85 -3 -143 46 -150 38 -6 45 2 45 55 0 33 2 67 5 74
3 6 -15 25 -39 41 -41 28 -45 26 -57 -20z"/>
<path d="M3450 180 c-44 -9 -131 -39 -193 -66 -62 -27 -142 -56 -177 -64 -47
-10 -58 -19 -38 -31 36 -22 1174 -22 1187 0 13 21 -45 71 -63 54 -7 -7 -25 -2
-40 10 -15 12 -33 17 -40 10 -7 -7 -27 -1 -44 14 -93 77 -386 114 -592 73z"/>
</g>
</svg>
